<svg version="1.1" id="Layer_1" xmlns="http://www.w3.org/2000/svg" xmlns:xlink="http://www.w3.org/1999/xlink" x="0px" y="0px"
	 width="100%" viewBox="0 0 1000 1000" enable-background="new 0 0 1000 1000" xml:space="preserve">
<path fill="#FFFFFF" opacity="1.000000" stroke="none" 
	d="
M910.000000,1001.000000 
	C606.666687,1001.000000 303.833344,1001.000000 1.000000,1001.000000 
	C1.000000,667.666687 1.000000,334.333344 1.000000,1.000000 
	C334.333344,1.000000 667.666687,1.000000 1001.000000,1.000000 
	C1001.000000,334.333344 1001.000000,667.666687 1001.000000,1001.000000 
	C970.833313,1001.000000 940.666687,1001.000000 910.000000,1001.000000 
M677.994934,495.011230 
	C677.994934,495.011230 678.014648,495.015472 678.370972,495.476227 
	C678.887268,495.718994 679.403564,495.961731 679.921936,496.106323 
	C679.921936,496.106323 679.833618,496.149170 680.180847,496.731842 
	C681.427673,497.265900 682.674561,497.799957 684.122803,498.759918 
	C684.122803,498.759918 684.545898,498.967133 684.545898,498.967133 
	C684.545898,498.967133 685.007324,498.872223 685.493286,499.020020 
	C685.662170,499.007721 685.830994,498.995392 686.009338,499.007599 
	C686.009338,499.007599 686.030334,498.991394 686.610596,499.440796 
	C693.480652,501.813812 700.394287,502.792206 707.721375,500.190094 
	C707.721375,500.190094 707.970947,499.998474 708.700806,500.035828 
	C709.323181,499.715881 709.945557,499.395935 710.797424,499.182861 
	C710.797424,499.182861 710.972168,498.999634 711.536621,498.954834 
	C711.745178,498.649628 711.953735,498.344452 712.587769,498.023407 
	C712.587769,498.023407 712.998901,497.912384 713.721863,498.043823 
	C726.238037,491.546387 733.121643,481.553101 732.989807,467.149994 
	C732.864014,453.415344 724.013000,441.183533 711.464539,435.914368 
	C695.378662,429.159821 679.716553,436.397125 672.209656,445.542725 
	C664.441589,455.006531 659.927185,469.552521 667.973694,483.023926 
	C667.973694,483.023926 667.973877,483.051056 668.014282,483.752167 
	C670.970215,487.218689 673.926147,490.685211 676.950439,494.082336 
	C676.950439,494.082336 676.853271,494.074707 677.035706,494.579712 
	C677.350220,494.719208 677.664734,494.858673 677.994934,495.011230 
M632.604980,433.777252 
	C632.174377,433.761353 631.743774,433.745422 630.496460,433.293915 
	C627.633850,433.509766 624.771301,433.725647 621.119263,433.908508 
	C618.295776,434.794586 615.408325,435.517212 612.659058,436.592896 
	C592.823364,444.353333 585.925049,472.849457 599.963257,488.990234 
	C599.963257,488.990234 599.879211,489.098083 600.099670,489.729340 
	C602.694580,491.895386 605.289490,494.061401 607.901367,496.120056 
	C607.901367,496.120056 607.808228,496.176147 608.124634,496.754425 
	C609.076477,497.171753 610.028381,497.589081 610.995178,498.005951 
	C610.995178,498.005951 611.006775,498.014618 611.503784,498.440216 
	C612.330627,498.655182 613.157532,498.870117 614.486023,499.623047 
	C628.043884,504.370178 640.356628,501.182526 651.778503,493.433319 
	C653.278931,492.415436 654.540833,489.953918 654.612061,488.110748 
	C654.919922,480.145233 654.743774,472.161041 654.743774,463.673920 
	C645.480347,463.673920 636.437744,463.673920 627.242920,463.673920 
	C627.242920,467.155945 627.242920,470.559875 627.242920,474.678925 
	C632.254333,474.678925 637.004089,474.678925 642.068787,474.678925 
	C642.068787,477.018158 641.768188,478.720978 642.124451,480.272980 
	C643.252319,485.186035 641.017456,487.418518 636.442139,488.130035 
	C635.472412,488.280792 634.557800,488.761993 633.604553,489.046539 
	C623.142273,492.169769 611.895874,487.195160 608.275574,477.850952 
	C603.407593,465.285980 607.624268,453.283844 617.921570,447.694153 
	C625.288147,443.695374 631.928162,445.363281 639.221924,448.602325 
	C640.887939,449.598145 642.554016,450.593994 644.497681,451.755768 
	C646.865662,448.624420 649.089905,445.683228 652.217712,441.547150 
	C646.692627,439.151855 641.851746,437.053223 637.017761,435.007568 
	C637.017761,435.007568 637.056458,434.970825 636.482300,434.546326 
	C635.321350,434.364960 634.160461,434.183594 633.000000,434.000000 
	C633.000000,434.000000 632.995239,434.001495 632.604980,433.777252 
M518.919983,436.164612 
	C514.772095,435.569733 510.624268,434.974823 506.216766,434.342682 
	C506.216766,446.166382 506.216766,457.063538 506.035645,468.887268 
	C506.035645,479.434235 506.035645,489.981201 506.035645,500.604431 
	C510.775208,500.604431 514.667664,500.604431 518.781128,500.604431 
	C518.781128,479.172943 518.781128,458.106567 518.919983,436.164612 
M462.198975,477.746124 
	C462.198975,477.746124 462.227661,477.726593 462.119659,477.000122 
	C457.299622,464.846710 452.564728,452.658051 447.567200,440.578064 
	C446.822021,438.776794 445.035797,436.484497 443.393127,436.166656 
	C439.892914,435.489471 436.170715,435.959656 431.937805,435.959656 
	C432.665375,438.246796 433.096161,439.999329 433.768738,441.653564 
	C440.693726,458.685516 447.664459,475.698883 454.608398,492.723145 
	C458.094482,501.269958 458.089050,501.397888 467.165009,500.833038 
	C468.577789,500.745117 470.530121,499.244324 471.134583,497.902191 
	C474.796051,489.772675 478.194092,481.522217 481.574585,473.268982 
	C486.614044,460.965393 491.565918,448.625946 496.705322,435.930603 
	C492.224426,435.930603 488.481720,435.738007 484.780884,436.047272 
	C483.661285,436.140839 482.102448,437.412415 481.685791,438.503693 
	C476.672150,451.634827 471.835327,464.833496 466.796814,478.190826 
	C466.796814,478.190826 466.907684,478.398224 466.367126,478.760986 
	C466.260468,479.172394 466.153809,479.583801 465.825623,480.168671 
	C465.825623,480.168671 465.906189,480.438263 465.289612,480.755371 
	C464.864136,480.908691 464.438629,481.061981 463.866425,480.683075 
	C463.591492,480.453766 463.316528,480.224457 463.019012,479.357056 
	C462.740509,478.830078 462.462036,478.303101 462.198975,477.746124 
M726.912903,514.331238 
	C728.950134,514.226685 730.987366,514.122192 733.563965,513.990051 
	C732.901855,512.580994 732.640991,511.537964 732.379272,511.537781 
	C634.405518,511.467804 536.431702,511.469055 437.336304,511.469055 
	C438.505707,512.792847 439.189606,513.566956 440.732300,514.791809 
	C441.729095,514.858704 442.725861,514.984070 443.722656,514.984070 
	C536.215881,514.982544 628.709106,514.974670 721.202332,514.934448 
	C722.834717,514.933716 724.467041,514.536377 726.912903,514.331238 
M584.264282,499.233978 
	C584.264282,495.955719 584.264282,492.677429 584.264282,488.953705 
	C572.420715,488.953705 560.713013,488.953705 548.647888,488.199463 
	C548.647888,483.323730 548.647888,478.447968 548.647888,472.909912 
	C554.866089,472.909912 560.940918,472.909912 567.933594,473.077637 
	C571.848389,473.077637 575.763184,473.077637 579.644409,473.077637 
	C579.644409,469.031097 579.644409,465.520996 579.644409,461.964935 
	C569.152100,461.964935 559.077515,461.964935 548.458191,461.320648 
	C548.458191,456.585449 548.458191,451.850220 548.458191,446.038086 
	C559.747803,446.038086 570.818420,446.038086 582.815430,446.120850 
	C583.434875,442.524994 584.054382,438.929138 584.728088,435.018860 
	C567.473999,435.018860 551.389587,435.018860 535.256104,435.018860 
	C535.256104,456.871796 535.256104,478.488373 535.739807,500.751770 
	C551.044922,500.790253 566.350098,500.839874 581.655212,500.832336 
	C582.381531,500.831970 583.107666,500.324097 584.264282,499.233978 
M273.629761,562.558960 
	C284.443115,562.409119 295.256470,562.259277 306.906677,562.122925 
	C311.152893,562.702148 313.994812,560.815063 316.632935,557.522766 
	C324.118378,548.181396 331.971527,539.135315 339.534485,529.854431 
	C340.587738,528.561829 341.331726,526.610352 341.357605,524.950439 
	C341.617401,508.310181 341.698578,491.667145 341.824890,475.024841 
	C341.840820,472.925140 341.827087,470.825226 341.827087,468.282471 
	C366.802307,468.282471 391.271576,468.282471 416.541992,468.282471 
	C415.055695,466.696686 414.216125,465.683044 413.258667,464.796692 
	C392.508026,445.587036 371.780731,426.351837 350.954651,407.224274 
	C346.327545,402.974548 344.997833,403.193542 340.301147,407.555573 
	C320.669708,425.788300 301.022949,444.004547 281.418182,462.265900 
	C277.067566,466.318420 272.864716,470.529572 268.008087,475.335449 
	C267.951355,498.951050 267.871979,522.566650 267.857239,546.182251 
	C267.854340,550.828735 268.100891,555.475403 268.255646,560.718567 
	C268.784821,561.200806 269.313965,561.683044 270.135956,562.385620 
	C270.473267,562.322998 270.810577,562.260437 271.729065,562.230530 
	C272.116821,562.217041 272.504547,562.203491 273.629761,562.558960 
M423.861389,500.304169 
	C423.861389,492.591156 423.861389,484.878143 423.861389,477.427734 
	C401.696777,477.427734 380.302795,477.427734 358.112152,477.271149 
	C355.836121,477.271149 353.560120,477.271149 350.967255,477.271149 
	C350.967255,493.937927 350.933044,510.371460 351.040924,526.804077 
	C351.048462,527.949707 351.917969,529.246826 352.710419,530.205872 
	C360.730957,539.911865 368.713654,549.654053 376.990753,559.138428 
	C378.386719,560.737976 381.110840,561.924683 383.261932,561.991333 
	C393.231262,562.300293 403.214874,562.148071 413.193390,562.158630 
	C416.611145,562.162292 420.028931,562.159241 423.579346,562.159241 
	C423.579346,541.249146 423.579346,521.167236 423.861389,500.304169 
M500.418762,525.951172 
	C495.673706,525.951172 490.928650,525.951172 486.072662,525.951172 
	C486.072662,539.312500 486.072662,551.882446 486.072662,564.428467 
	C490.818909,565.809998 492.709656,564.273499 492.578491,559.768433 
	C492.503510,557.193420 492.900391,554.604736 493.059845,552.371826 
	C499.966675,550.506226 504.117401,553.305420 507.341766,558.458191 
	C508.634399,560.523987 510.284882,562.506897 512.189758,563.992371 
	C513.224060,564.798889 515.134644,564.481689 516.649963,564.671387 
	C516.327759,563.457703 516.234253,562.116333 515.640991,561.053955 
	C513.760010,557.685425 511.692383,554.421082 509.636597,551.016541 
	C510.733704,550.242065 511.393158,549.764282 512.064819,549.304321 
	C517.200012,545.788269 519.474182,540.137695 517.965820,534.630920 
	C516.597534,529.635498 512.749207,526.773499 506.370209,526.118835 
	C504.720947,525.949585 503.047516,526.016296 500.418762,525.951172 
M638.005737,552.545288 
	C641.290771,556.185059 644.490845,559.906799 647.892395,563.434326 
	C649.964905,565.583557 652.724121,565.531006 652.823547,562.296021 
	C653.190430,550.362061 652.969360,538.410156 652.969360,525.999634 
	C650.716797,526.098816 649.008728,526.174072 646.529114,526.283325 
	C646.529114,535.036316 646.529114,543.313965 646.529114,551.591675 
	C639.588501,544.331787 633.666992,536.953430 628.108765,529.310913 
	C625.637695,525.913269 622.935608,525.171082 618.990784,526.495483 
	C618.990784,538.354248 618.916931,549.999634 619.119690,561.640259 
	C619.137451,562.660583 620.969482,563.649353 621.958862,564.652710 
	C622.967712,563.633240 624.328918,562.772583 624.881042,561.547241 
	C625.381592,560.436462 625.006409,558.928284 625.006897,557.595337 
	C625.009155,551.356750 625.007874,545.118225 625.007874,538.879639 
	C625.552002,538.670349 626.096069,538.461060 626.640198,538.251831 
	C630.280640,542.829285 633.921082,547.406799 638.005737,552.545288 
M339.977081,591.541931 
	C341.865387,593.727417 343.753693,595.912964 346.033600,598.551697 
	C354.770325,587.527161 362.983429,577.163452 371.255432,566.725403 
	C362.795258,556.566772 354.544098,546.659119 345.946869,536.335938 
	C337.268707,546.810181 328.982727,556.811096 320.780609,566.710876 
	C327.351746,575.223450 333.438812,583.108948 339.977081,591.541931 
M592.817322,526.367859 
	C586.537048,526.367859 580.256836,526.367859 573.726562,526.367859 
	C573.726562,539.167053 573.726562,551.856445 573.726562,565.336548 
	C580.902527,564.680603 587.608643,564.683777 594.031372,563.336243 
	C603.690125,561.309937 609.490479,553.119751 608.981689,543.731384 
	C608.516846,535.154602 602.210632,528.115540 592.817322,526.367859 
M455.055176,564.950928 
	C460.674927,563.914246 466.326385,563.014954 471.889160,561.731445 
	C473.080933,561.456421 474.766968,559.838562 474.831573,558.756104 
	C475.140656,553.577942 474.970276,548.371094 474.970276,543.576904 
	C469.513855,543.576904 464.971466,543.576904 460.000977,543.576904 
	C460.114899,545.525269 460.204803,547.062683 460.303772,548.755432 
	C463.382751,548.960449 465.977600,549.133179 470.105774,549.408020 
	C468.592346,552.707458 468.078156,556.216431 466.065857,557.718628 
	C461.870270,560.850647 452.864075,559.076660 449.494232,555.331482 
	C444.611877,549.905273 444.416748,542.230408 449.006439,536.143494 
	C452.795685,531.118103 458.895905,529.719482 465.030151,532.499268 
	C466.085052,532.977295 467.170105,534.124573 468.095337,533.986328 
	C469.608002,533.760315 471.483856,533.065857 472.272675,531.923950 
	C472.789948,531.175110 472.078613,528.487366 471.208191,528.036011 
	C460.681183,522.577332 445.721161,524.389160 440.806519,536.948669 
	C435.934113,549.400146 441.270660,560.684570 455.055176,564.950928 
M723.058105,539.428650 
	C721.710205,536.396484 720.644348,533.190674 718.920349,530.389954 
	C717.664001,528.348938 715.800171,525.864502 713.743774,525.316406 
	C710.273315,524.391357 709.213989,527.893494 708.084167,530.439209 
	C703.772339,540.153870 699.502747,549.887573 695.288635,559.645020 
	C694.622620,561.187073 694.323242,562.887451 693.824524,564.618225 
	C697.959045,565.503662 700.089478,564.268433 701.441650,560.889099 
	C702.192688,559.012146 703.739136,556.173340 705.123230,556.054504 
	C710.728210,555.573547 716.504333,555.421631 722.010925,556.359863 
	C723.950989,556.690369 725.134216,560.644104 726.989258,562.640442 
	C727.905579,563.626587 729.563477,563.923706 730.885803,564.532654 
	C731.030518,563.247498 731.643127,561.790100 731.243835,560.705200 
	C728.707275,553.813232 725.947205,547.003418 723.058105,539.428650 
M562.890625,560.628479 
	C558.646057,550.401062 554.532288,540.115601 550.042786,529.996826 
	C549.178223,528.048218 546.840027,526.753540 545.181580,525.157166 
	C543.700256,526.764099 541.760803,528.140503 540.816223,530.017517 
	C536.540283,538.514893 532.487488,547.126831 528.482605,555.757080 
	C527.193604,558.534668 526.297485,561.494507 525.221619,564.370972 
	C525.693359,564.789856 526.165161,565.208740 526.636902,565.627625 
	C528.590271,564.000244 531.432861,562.749695 532.314819,560.668274 
	C534.247986,556.106018 537.301941,554.971497 541.737427,555.505127 
	C543.541565,555.722229 545.436462,555.755676 547.220825,555.457825 
	C552.421143,554.589722 555.696045,556.250977 557.229309,561.599487 
	C558.465027,565.909973 561.542603,565.694214 565.278320,563.813171 
	C564.375793,562.790161 563.744995,562.075134 562.890625,560.628479 
M679.340088,527.985718 
	C679.237061,536.296631 679.400879,544.625427 678.844116,552.905884 
	C678.704407,554.983826 676.532776,558.245300 674.800415,558.609314 
	C671.618103,559.277954 668.068420,558.197937 664.671875,557.846802 
	C664.640259,557.392395 664.608704,556.938049 664.577087,556.483643 
	C663.852905,557.527100 663.128723,558.570557 662.435730,559.569092 
	C667.026367,564.879089 671.221558,566.362122 677.471008,564.760803 
	C681.896240,563.626892 685.325867,560.550049 685.573364,556.250427 
	C686.142090,546.370544 685.753601,536.435608 685.753601,525.662903 
	C683.589478,526.162598 681.538025,526.636230 679.340088,527.985718 
z"/>
<path fill="#909394" opacity="1.000000" stroke="none" 
	d="
M358.908813,477.427734 
	C380.302795,477.427734 401.696777,477.427734 423.861389,477.427734 
	C423.861389,484.878143 423.861389,492.591156 423.274017,500.701904 
	C422.194458,501.484619 421.316315,501.826447 421.267700,502.261108 
	C420.478088,509.320160 419.329987,516.382446 419.200775,523.461243 
	C419.033081,532.649841 419.790466,541.851929 419.962097,551.051697 
	C420.056427,556.105652 417.060089,558.840881 411.952118,559.012634 
	C404.497803,559.263367 397.039490,559.931641 389.596375,559.776062 
	C385.231567,559.684814 380.768341,559.045837 377.545471,555.028015 
	C371.019409,546.892212 363.995422,539.149719 357.624664,530.899109 
	C355.667664,528.364624 354.295074,524.742126 354.160706,521.554443 
	C353.728607,511.304901 354.242645,501.017548 353.900146,490.761230 
	C353.721863,485.422241 356.578186,481.615448 358.908813,477.427734 
z"/>
<path fill="#175E93" opacity="1.000000" stroke="none" 
	d="
M268.593811,474.667664 
	C272.864716,470.529572 277.067566,466.318420 281.418182,462.265900 
	C301.022949,444.004547 320.669708,425.788300 340.301147,407.555573 
	C344.997833,403.193542 346.327545,402.974548 350.954651,407.224274 
	C371.780731,426.351837 392.508026,445.587036 413.258667,464.796692 
	C414.216125,465.683044 415.055695,466.696686 416.541992,468.282471 
	C391.271576,468.282471 366.802307,468.282471 341.827087,468.282471 
	C341.827087,470.825226 341.840820,472.925140 341.824890,475.024841 
	C341.698578,491.667145 341.617401,508.310181 341.357605,524.950439 
	C341.331726,526.610352 340.587738,528.561829 339.534485,529.854431 
	C331.971527,539.135315 324.118378,548.181396 316.632935,557.522766 
	C313.994812,560.815063 311.152893,562.702148 306.023926,562.021729 
	C294.391571,562.010315 283.641937,562.100159 272.892303,562.189941 
	C272.504547,562.203491 272.116821,562.217041 271.114166,562.132568 
	C270.280548,562.078125 270.061859,562.121704 269.843140,562.165283 
	C269.313965,561.683044 268.784821,561.200806 268.455231,560.058838 
	C268.713745,557.410034 268.828278,555.420776 268.823242,553.431824 
	C268.756561,527.177124 268.673065,500.922394 268.593811,474.667664 
M337.009766,513.416565 
	C337.011230,500.586945 337.001648,487.757355 337.019043,474.927734 
	C337.027130,468.955597 340.827057,464.975464 346.889923,465.050140 
	C362.785065,465.245880 378.677795,465.759705 394.571991,465.782349 
	C396.894745,465.785675 399.220306,463.796204 401.544586,462.728790 
	C400.670044,460.953186 400.179443,458.792175 398.852783,457.470337 
	C393.793488,452.429535 388.412720,447.713470 383.251434,442.772308 
	C378.267487,438.000977 373.615265,432.862701 368.432037,428.325806 
	C363.232025,423.774139 357.003418,420.299500 352.245087,415.368988 
	C347.542358,410.496002 345.144562,408.874146 338.218872,415.241211 
	C331.256439,421.642029 324.238861,427.983765 317.187408,434.286438 
	C312.629333,438.360535 307.856567,442.198914 303.375916,446.354126 
	C295.864044,453.320282 288.694275,460.665009 281.025635,467.449249 
	C275.375214,472.447998 270.881195,477.157867 271.776581,485.844147 
	C272.957306,497.298584 272.770660,508.904358 272.950378,520.448547 
	C273.115021,531.023315 272.969391,541.602783 272.991425,552.180054 
	C273.004059,558.231323 273.797150,558.985291 280.008972,559.006653 
	C284.840851,559.023193 289.677582,558.874084 294.503632,559.042725 
	C302.804962,559.332642 309.735504,556.588135 315.227631,550.297729 
	C320.246552,544.549194 325.495117,538.987122 330.270660,533.044128 
	C334.582306,527.678345 338.102905,521.805359 337.009766,513.416565 
z"/>
<path fill="#1F6CA4" opacity="1.000000" stroke="none" 
	d="
M621.908691,433.941498 
	C624.771301,433.725647 627.633850,433.509766 631.108887,433.567535 
	C632.145996,433.894592 632.570618,433.948029 632.995239,434.001495 
	C632.995239,434.001495 633.000000,434.000000 633.226257,434.285187 
	C634.653809,434.703857 635.855164,434.837341 637.056458,434.970825 
	C637.056458,434.970825 637.017761,435.007568 637.192993,435.278809 
	C638.601196,436.750519 639.679993,438.194153 641.102295,439.096191 
	C643.413635,440.562134 646.212219,442.134583 644.725037,445.048065 
	C643.915955,446.632965 640.884094,447.083191 638.854736,448.045166 
	C631.928162,445.363281 625.288147,443.695374 617.921570,447.694153 
	C607.624268,453.283844 603.407593,465.285980 608.275574,477.850952 
	C611.895874,487.195160 623.142273,492.169769 633.604553,489.046539 
	C634.557800,488.761993 635.472412,488.280792 636.442139,488.130035 
	C641.017456,487.418518 643.252319,485.186035 642.124451,480.272980 
	C641.768188,478.720978 642.068787,477.018158 642.068787,474.678925 
	C637.004089,474.678925 632.254333,474.678925 627.242920,474.678925 
	C627.242920,470.559875 627.242920,467.155945 627.242920,463.673920 
	C636.437744,463.673920 645.480347,463.673920 654.743774,463.673920 
	C654.743774,472.161041 654.919922,480.145233 654.612061,488.110748 
	C654.540833,489.953918 653.278931,492.415436 651.778503,493.433319 
	C640.356628,501.182526 628.043884,504.370178 614.053589,499.068115 
	C612.749756,498.347015 611.878235,498.180817 611.006775,498.014618 
	C611.006775,498.014618 610.995178,498.005951 610.945312,497.645752 
	C609.866394,496.915771 608.837280,496.545959 607.808228,496.176147 
	C607.808228,496.176147 607.901367,496.120056 607.828552,495.827637 
	C605.130249,493.389526 602.504700,491.243805 599.879211,489.098083 
	C599.879211,489.098083 599.963257,488.990234 599.970459,488.641174 
	C599.464417,486.441589 599.150513,484.504517 598.393372,482.759796 
	C597.086121,479.747345 593.969910,476.649323 594.330750,473.950592 
	C595.319580,466.552887 596.876526,458.985016 599.779602,452.151947 
	C603.361389,443.721100 610.591675,438.760925 619.734741,436.799286 
	C620.622925,436.608704 621.191650,434.929626 621.908691,433.941498 
z"/>
<path fill="#1A6BA5" opacity="1.000000" stroke="none" 
	d="
M581.888977,446.038086 
	C570.818420,446.038086 559.747803,446.038086 548.458191,446.038086 
	C548.458191,451.850220 548.458191,456.585449 548.977905,461.941162 
	C555.955994,463.099731 562.433655,463.479553 568.862549,464.260529 
	C571.146484,464.537933 573.443054,465.559906 575.466858,466.711304 
	C576.272827,467.169830 576.917480,469.090240 576.609131,469.995392 
	C576.304993,470.888153 574.777771,471.642639 573.654663,471.918518 
	C571.491089,472.449982 569.234009,472.601105 567.015747,472.909912 
	C560.940918,472.909912 554.866089,472.909912 548.647888,472.909912 
	C548.647888,478.447968 548.647888,483.323730 549.072021,488.877075 
	C552.721802,490.035217 555.937378,490.824921 559.175415,490.931396 
	C565.769714,491.148254 572.377625,490.922943 578.976196,491.060699 
	C580.259766,491.087463 582.379333,491.684570 582.609436,492.463074 
	C582.998352,493.779053 582.309937,495.490051 581.831238,496.955475 
	C581.568848,497.758423 580.808350,498.398682 579.947083,499.545868 
	C581.625366,499.764648 582.729614,499.908569 583.833862,500.052551 
	C583.107666,500.324097 582.381531,500.831970 581.655212,500.832336 
	C566.350098,500.839874 551.044922,500.790253 535.825439,500.307495 
	C535.946411,497.501770 536.009583,495.140350 536.012451,492.778870 
	C536.029175,479.124390 536.032288,465.469910 536.038696,451.815430 
	C536.044739,438.926178 535.948181,438.141785 548.339600,436.627716 
	C558.318909,435.408356 568.570801,436.239410 578.690063,436.547302 
	C580.155090,436.591858 582.663513,438.745941 582.724182,440.017609 
	C582.815491,441.930969 581.172668,443.927063 580.309753,445.795502 
	C579.980347,445.744904 580.934631,445.891510 581.888977,446.038086 
z"/>
<path fill="#1A6BA5" opacity="1.000000" stroke="none" 
	d="
M710.972168,498.999634 
	C710.972168,498.999634 710.797424,499.182861 710.313110,499.129822 
	C709.209534,499.384033 708.590271,499.691254 707.970947,499.998474 
	C707.970947,499.998474 707.721375,500.190094 707.107605,500.120911 
	C703.100403,500.317932 699.688538,500.932251 696.318665,500.753601 
	C692.867798,500.570648 689.458069,499.611053 686.030334,498.991394 
	C686.030334,498.991394 686.009338,499.007599 685.927979,498.825958 
	C685.566833,498.720306 685.287109,498.796265 685.007324,498.872223 
	C685.007324,498.872223 684.545898,498.967133 684.545898,498.967133 
	C684.545898,498.967133 684.122803,498.759918 683.922974,498.187073 
	C682.426636,497.125885 681.130127,496.637543 679.833618,496.149170 
	C679.833618,496.149170 679.921936,496.106323 679.810120,495.865356 
	C679.137085,495.421387 678.575867,495.218445 678.014648,495.015472 
	C678.014648,495.015472 677.994934,495.011230 677.874634,494.773132 
	C677.454041,494.381592 677.153625,494.228149 676.853271,494.074707 
	C676.853271,494.074707 676.950439,494.082336 676.935547,493.757690 
	C674.720581,490.101196 672.575623,486.729950 670.257019,483.482666 
	C669.932007,483.027466 668.755981,483.179901 667.973877,483.051056 
	C667.973877,483.051056 667.973694,483.023926 667.984924,482.634338 
	C667.994629,480.321411 668.667847,478.046021 667.878723,476.533569 
	C663.712158,468.547791 667.165649,461.106934 669.825684,454.059967 
	C674.743225,441.031769 687.380310,438.170624 698.832764,434.065247 
	C699.403015,433.860809 700.233887,433.933899 700.788025,434.200592 
	C712.321228,439.750458 724.289734,444.551239 728.885986,458.486786 
	C730.302246,462.780762 733.710876,466.177704 729.436523,470.666107 
	C728.561462,471.584961 729.184143,473.869812 728.984131,475.508911 
	C728.787842,477.117462 728.881653,479.012146 728.053711,480.249939 
	C724.274231,485.900421 721.662598,492.627991 714.636780,495.490448 
	C713.886475,495.796173 713.535278,497.081482 712.998901,497.912384 
	C712.998901,497.912384 712.587769,498.023407 712.123169,498.116943 
	C711.429688,498.473541 711.200928,498.736572 710.972168,498.999634 
M682.601074,452.255127 
	C682.427673,452.567322 682.254272,452.879547 682.084351,453.081512 
	C682.084351,453.081512 682.187622,453.120331 681.454529,453.096375 
	C680.193298,454.295654 678.624756,455.300842 677.723755,456.727631 
	C673.701782,463.096436 674.103882,470.052155 676.163086,476.805389 
	C678.503174,484.480103 684.848083,489.113678 691.784241,488.787811 
	C691.784241,488.787811 692.000000,489.001068 692.473022,489.563141 
	C693.439331,489.675629 694.405701,489.788116 696.188171,489.837311 
	C708.298035,489.925659 716.857910,483.381012 718.870850,472.494690 
	C721.081238,460.540436 715.517639,450.413452 704.609314,446.024811 
	C698.410889,443.531067 692.990112,445.926147 686.842285,448.233490 
	C686.573608,448.537262 686.304993,448.841034 686.055969,449.054718 
	C686.055969,449.054718 686.138367,449.096069 685.365112,449.045044 
	C684.596313,450.061676 683.827454,451.078339 683.021545,452.025177 
	C683.021545,452.025177 683.100342,452.031372 682.601074,452.255127 
z"/>
<path fill="#105077" opacity="1.000000" stroke="none" 
	d="
M439.873474,514.341125 
	C439.189606,513.566956 438.505707,512.792847 437.336304,511.469055 
	C536.431702,511.469055 634.405518,511.467804 732.379272,511.537781 
	C732.640991,511.537964 732.901855,512.580994 733.563965,513.990051 
	C730.987366,514.122192 728.950134,514.226685 726.117737,514.188354 
	C644.965393,514.052185 564.608154,514.045349 484.250946,514.077942 
	C469.458435,514.083923 454.665955,514.249329 439.873474,514.341125 
z"/>
<path fill="#175E93" opacity="1.000000" stroke="none" 
	d="
M466.952393,478.014526 
	C471.835327,464.833496 476.672150,451.634827 481.685791,438.503693 
	C482.102448,437.412415 483.661285,436.140839 484.780884,436.047272 
	C488.481720,435.738007 492.224426,435.930603 496.705322,435.930603 
	C491.565918,448.625946 486.614044,460.965393 481.574585,473.268982 
	C478.194092,481.522217 474.796051,489.772675 471.134583,497.902191 
	C470.530121,499.244324 468.577789,500.745117 467.165009,500.833038 
	C458.089050,501.397888 458.094482,501.269958 454.608398,492.723145 
	C447.664459,475.698883 440.693726,458.685516 433.768738,441.653564 
	C433.096161,439.999329 432.665375,438.246796 431.937805,435.959656 
	C436.170715,435.959656 439.892914,435.489471 443.393127,436.166656 
	C445.035797,436.484497 446.822021,438.776794 447.567200,440.578064 
	C452.564728,452.658051 457.299622,464.846710 461.784485,477.438538 
	C460.030243,476.952179 457.824219,476.334808 457.322906,475.051514 
	C454.569061,468.001770 452.621857,460.620361 449.620148,453.689606 
	C447.510956,448.819580 444.261444,444.418884 441.257660,439.987183 
	C440.803467,439.317139 438.913422,439.620361 437.687531,439.473389 
	C437.592438,440.559875 437.177856,441.739929 437.463440,442.714905 
	C438.250671,445.402679 439.265137,448.030914 440.306244,450.636139 
	C445.667542,464.051849 451.087982,477.443909 456.442078,490.862457 
	C459.630859,498.854370 464.429749,499.951416 470.038757,493.861694 
	C470.569763,493.285156 470.923584,492.493103 471.199493,491.742249 
	C473.501495,485.477539 475.769745,479.200409 478.041016,472.924408 
	C481.406128,463.625946 484.832275,454.348389 488.049835,444.999054 
	C488.495483,443.704071 487.897675,442.050018 487.782898,440.562195 
	C486.458282,441.512726 485.038239,442.360291 483.851685,443.459839 
	C483.307861,443.963806 483.239624,444.969818 482.927521,445.736664 
	C479.010223,455.362152 475.189606,465.029694 471.059265,474.562958 
	C470.423218,476.031006 468.357117,476.879486 466.952393,478.014526 
z"/>
<path fill="#1A6BA5" opacity="1.000000" stroke="none" 
	d="
M466.874573,478.102661 
	C468.357117,476.879486 470.423218,476.031006 471.059265,474.562958 
	C475.189606,465.029694 479.010223,455.362152 482.927521,445.736664 
	C483.239624,444.969818 483.307861,443.963806 483.851685,443.459839 
	C485.038239,442.360291 486.458282,441.512726 487.782898,440.562195 
	C487.897675,442.050018 488.495483,443.704071 488.049835,444.999054 
	C484.832275,454.348389 481.406128,463.625946 478.041016,472.924408 
	C475.769745,479.200409 473.501495,485.477539 471.199493,491.742249 
	C470.923584,492.493103 470.569763,493.285156 470.038757,493.861694 
	C464.429749,499.951416 459.630859,498.854370 456.442078,490.862457 
	C451.087982,477.443909 445.667542,464.051849 440.306244,450.636139 
	C439.265137,448.030914 438.250671,445.402679 437.463440,442.714905 
	C437.177856,441.739929 437.592438,440.559875 437.687531,439.473389 
	C438.913422,439.620361 440.803467,439.317139 441.257660,439.987183 
	C444.261444,444.418884 447.510956,448.819580 449.620148,453.689606 
	C452.621857,460.620361 454.569061,468.001770 457.322906,475.051514 
	C457.824219,476.334808 460.030243,476.952179 461.838501,477.801758 
	C462.227661,477.726593 462.198975,477.746124 462.152527,478.086975 
	C462.417908,478.950287 462.729736,479.472717 463.041565,479.995148 
	C463.316528,480.224457 463.591492,480.453766 464.164246,481.115662 
	C464.943451,481.178253 465.424835,480.808258 465.906189,480.438263 
	C465.906189,480.438263 465.825623,480.168671 466.180115,479.881927 
	C466.658997,479.196198 466.783356,478.797211 466.907715,478.398224 
	C466.907684,478.398224 466.796814,478.190826 466.874573,478.102661 
z"/>
<path fill="#1F6CA4" opacity="1.000000" stroke="none" 
	d="
M518.781128,437.040192 
	C518.781128,458.106567 518.781128,479.172943 518.781128,500.604431 
	C514.667664,500.604431 510.775208,500.604431 506.035645,500.604431 
	C506.035645,489.981201 506.035645,479.434235 506.365723,468.091248 
	C506.797180,459.517090 507.206360,451.726318 506.889069,443.965240 
	C506.685730,438.991028 509.347992,437.566010 513.317505,437.063232 
	C515.110901,436.836090 516.958252,437.034729 518.781128,437.040192 
z"/>
<path fill="#999796" opacity="1.000000" stroke="none" 
	d="
M500.901978,525.962891 
	C503.047516,526.016296 504.720947,525.949585 506.370209,526.118835 
	C512.749207,526.773499 516.597534,529.635498 517.965820,534.630920 
	C519.474182,540.137695 517.200012,545.788269 512.064819,549.304321 
	C511.393158,549.764282 510.733704,550.242065 509.636597,551.016541 
	C511.692383,554.421082 513.760010,557.685425 515.640991,561.053955 
	C516.234253,562.116333 516.327759,563.457703 516.649963,564.671387 
	C515.134644,564.481689 513.224060,564.798889 512.189758,563.992371 
	C510.284882,562.506897 508.634399,560.523987 507.341766,558.458191 
	C504.117401,553.305420 499.966675,550.506226 493.059845,552.371826 
	C492.900391,554.604736 492.503510,557.193420 492.578491,559.768433 
	C492.709656,564.273499 490.818909,565.809998 486.072662,564.428467 
	C486.072662,551.882446 486.072662,539.312500 486.072662,525.951172 
	C490.928650,525.951172 495.673706,525.951172 500.901978,525.962891 
M499.404236,532.073975 
	C497.347534,532.073975 495.290863,532.073975 493.332214,532.073975 
	C492.036865,546.160156 492.328827,546.426208 505.200867,545.158630 
	C509.051422,544.779480 510.613159,542.477539 511.018738,538.963318 
	C511.439484,535.317871 509.819061,533.297424 506.202576,532.834595 
	C504.240997,532.583618 502.279633,532.331116 499.404236,532.073975 
z"/>
<path fill="#939090" opacity="1.000000" stroke="none" 
	d="
M637.783630,552.264771 
	C633.921082,547.406799 630.280640,542.829285 626.640198,538.251831 
	C626.096069,538.461060 625.552002,538.670349 625.007874,538.879639 
	C625.007874,545.118225 625.009155,551.356750 625.006897,557.595337 
	C625.006409,558.928284 625.381592,560.436462 624.881042,561.547241 
	C624.328918,562.772583 622.967712,563.633240 621.958862,564.652710 
	C620.969482,563.649353 619.137451,562.660583 619.119690,561.640259 
	C618.916931,549.999634 618.990784,538.354248 618.990784,526.495483 
	C622.935608,525.171082 625.637695,525.913269 628.108765,529.310913 
	C633.666992,536.953430 639.588501,544.331787 646.529114,551.591675 
	C646.529114,543.313965 646.529114,535.036316 646.529114,526.283325 
	C649.008728,526.174072 650.716797,526.098816 652.969360,525.999634 
	C652.969360,538.410156 653.190430,550.362061 652.823547,562.296021 
	C652.724121,565.531006 649.964905,565.583557 647.892395,563.434326 
	C644.490845,559.906799 641.290771,556.185059 637.783630,552.264771 
z"/>
<path fill="#175E93" opacity="1.000000" stroke="none" 
	d="
M339.751465,591.268188 
	C333.438812,583.108948 327.351746,575.223450 320.780609,566.710876 
	C328.982727,556.811096 337.268707,546.810181 345.946869,536.335938 
	C354.544098,546.659119 362.795258,556.566772 371.255432,566.725403 
	C362.983429,577.163452 354.770325,587.527161 346.033600,598.551697 
	C343.753693,595.912964 341.865387,593.727417 339.751465,591.268188 
M341.302063,587.258850 
	C343.933014,590.651794 347.077148,590.769409 349.666443,587.670898 
	C354.088470,582.379211 358.047791,576.702393 362.245605,571.221191 
	C364.843323,567.829285 364.249268,564.782593 361.417572,561.913208 
	C358.968506,559.431519 356.357178,557.092407 354.076294,554.465637 
	C348.750214,548.332031 342.360565,547.923096 336.822083,553.709290 
	C334.197601,556.451050 331.535217,559.248535 329.464447,562.398499 
	C327.867920,564.827026 325.474396,567.468811 328.318390,570.905884 
	C332.604523,576.085876 336.598694,581.507385 341.302063,587.258850 
z"/>
<path fill="#939090" opacity="1.000000" stroke="none" 
	d="
M358.510498,477.349426 
	C356.578186,481.615448 353.721863,485.422241 353.900146,490.761230 
	C354.242645,501.017548 353.728607,511.304901 354.160706,521.554443 
	C354.295074,524.742126 355.667664,528.364624 357.624664,530.899109 
	C363.995422,539.149719 371.019409,546.892212 377.545471,555.028015 
	C380.768341,559.045837 385.231567,559.684814 389.596375,559.776062 
	C397.039490,559.931641 404.497803,559.263367 411.952118,559.012634 
	C417.060089,558.840881 420.056427,556.105652 419.962097,551.051697 
	C419.790466,541.851929 419.033081,532.649841 419.200775,523.461243 
	C419.329987,516.382446 420.478088,509.320160 421.267700,502.261108 
	C421.316315,501.826447 422.194458,501.484619 423.132996,501.092468 
	C423.579346,521.167236 423.579346,541.249146 423.579346,562.159241 
	C420.028931,562.159241 416.611145,562.162292 413.193390,562.158630 
	C403.214874,562.148071 393.231262,562.300293 383.261932,561.991333 
	C381.110840,561.924683 378.386719,560.737976 376.990753,559.138428 
	C368.713654,549.654053 360.730957,539.911865 352.710419,530.205872 
	C351.917969,529.246826 351.048462,527.949707 351.040924,526.804077 
	C350.933044,510.371460 350.967255,493.937927 350.967255,477.271149 
	C353.560120,477.271149 355.836121,477.271149 358.510498,477.349426 
z"/>
<path fill="#999796" opacity="1.000000" stroke="none" 
	d="
M593.230408,526.489380 
	C602.210632,528.115540 608.516846,535.154602 608.981689,543.731384 
	C609.490479,553.119751 603.690125,561.309937 594.031372,563.336243 
	C587.608643,564.683777 580.902527,564.680603 573.726562,565.336548 
	C573.726562,551.856445 573.726562,539.167053 573.726562,526.367859 
	C580.256836,526.367859 586.537048,526.367859 593.230408,526.489380 
M596.874084,533.549011 
	C595.921753,533.347778 594.969482,533.146545 593.206482,532.776428 
	C589.208496,532.462585 585.210510,532.148804 580.246277,531.759155 
	C580.246277,538.415161 580.117798,544.022034 580.275879,549.620911 
	C580.522522,558.353821 580.604797,558.349670 589.484375,558.053467 
	C591.136475,557.998352 592.789368,557.965698 595.079407,557.799988 
	C595.379639,557.507874 595.679932,557.215820 595.982483,556.994873 
	C595.982483,556.994873 595.924438,556.953857 596.679749,556.978455 
	C601.957825,556.114624 603.229370,551.897400 603.804443,547.676514 
	C604.418884,543.165894 604.931763,538.305237 600.456543,535.086365 
	C599.517639,534.411011 598.056152,534.462463 596.871277,534.234070 
	C596.871277,534.234070 596.805664,534.236877 596.874084,533.549011 
z"/>
<path fill="#939090" opacity="1.000000" stroke="none" 
	d="
M454.633881,564.875061 
	C441.270660,560.684570 435.934113,549.400146 440.806519,536.948669 
	C445.721161,524.389160 460.681183,522.577332 471.208191,528.036011 
	C472.078613,528.487366 472.789948,531.175110 472.272675,531.923950 
	C471.483856,533.065857 469.608002,533.760315 468.095337,533.986328 
	C467.170105,534.124573 466.085052,532.977295 465.030151,532.499268 
	C458.895905,529.719482 452.795685,531.118103 449.006439,536.143494 
	C444.416748,542.230408 444.611877,549.905273 449.494232,555.331482 
	C452.864075,559.076660 461.870270,560.850647 466.065857,557.718628 
	C468.078156,556.216431 468.592346,552.707458 470.105774,549.408020 
	C465.977600,549.133179 463.382751,548.960449 460.303772,548.755432 
	C460.204803,547.062683 460.114899,545.525269 460.000977,543.576904 
	C464.971466,543.576904 469.513855,543.576904 474.970276,543.576904 
	C474.970276,548.371094 475.140656,553.577942 474.831573,558.756104 
	C474.766968,559.838562 473.080933,561.456421 471.889160,561.731445 
	C466.326385,563.014954 460.674927,563.914246 454.633881,564.875061 
z"/>
<path fill="#939090" opacity="1.000000" stroke="none" 
	d="
M723.159424,539.797607 
	C725.947205,547.003418 728.707275,553.813232 731.243835,560.705200 
	C731.643127,561.790100 731.030518,563.247498 730.885803,564.532654 
	C729.563477,563.923706 727.905579,563.626587 726.989258,562.640442 
	C725.134216,560.644104 723.950989,556.690369 722.010925,556.359863 
	C716.504333,555.421631 710.728210,555.573547 705.123230,556.054504 
	C703.739136,556.173340 702.192688,559.012146 701.441650,560.889099 
	C700.089478,564.268433 697.959045,565.503662 693.824524,564.618225 
	C694.323242,562.887451 694.622620,561.187073 695.288635,559.645020 
	C699.502747,549.887573 703.772339,540.153870 708.084167,530.439209 
	C709.213989,527.893494 710.273315,524.391357 713.743774,525.316406 
	C715.800171,525.864502 717.664001,528.348938 718.920349,530.389954 
	C720.644348,533.190674 721.710205,536.396484 723.159424,539.797607 
M707.586426,547.997314 
	C711.490601,548.529175 715.394775,549.061035 720.239502,549.721069 
	C718.029968,544.374207 716.423950,540.425903 714.748962,536.507141 
	C714.522400,535.977112 713.949585,535.595154 713.141907,534.712891 
	C711.266357,539.167114 709.558716,543.222595 707.586426,547.997314 
z"/>
<path fill="#939090" opacity="1.000000" stroke="none" 
	d="
M563.002380,560.994263 
	C563.744995,562.075134 564.375793,562.790161 565.278320,563.813171 
	C561.542603,565.694214 558.465027,565.909973 557.229309,561.599487 
	C555.696045,556.250977 552.421143,554.589722 547.220825,555.457825 
	C545.436462,555.755676 543.541565,555.722229 541.737427,555.505127 
	C537.301941,554.971497 534.247986,556.106018 532.314819,560.668274 
	C531.432861,562.749695 528.590271,564.000244 526.636902,565.627625 
	C526.165161,565.208740 525.693359,564.789856 525.221619,564.370972 
	C526.297485,561.494507 527.193604,558.534668 528.482605,555.757080 
	C532.487488,547.126831 536.540283,538.514893 540.816223,530.017517 
	C541.760803,528.140503 543.700256,526.764099 545.181580,525.157166 
	C546.840027,526.753540 549.178223,528.048218 550.042786,529.996826 
	C554.532288,540.115601 558.646057,550.401062 563.002380,560.994263 
M543.321289,536.194458 
	C541.760315,540.458069 540.199280,544.721680 538.427063,549.562012 
	C543.080811,549.321960 546.902161,549.124817 551.289124,548.898499 
	C549.630554,544.820374 548.269775,541.466125 546.901184,538.115112 
	C546.588196,537.348755 546.428894,536.383545 545.864746,535.898193 
	C545.398926,535.497375 544.439636,535.670044 543.321289,536.194458 
z"/>
<path fill="#175E93" opacity="1.000000" stroke="none" 
	d="
M713.360352,497.978088 
	C713.535278,497.081482 713.886475,495.796173 714.636780,495.490448 
	C721.662598,492.627991 724.274231,485.900421 728.053711,480.249939 
	C728.881653,479.012146 728.787842,477.117462 728.984131,475.508911 
	C729.184143,473.869812 728.561462,471.584961 729.436523,470.666107 
	C733.710876,466.177704 730.302246,462.780762 728.885986,458.486786 
	C724.289734,444.551239 712.321228,439.750458 700.788025,434.200592 
	C700.233887,433.933899 699.403015,433.860809 698.832764,434.065247 
	C687.380310,438.170624 674.743225,441.031769 669.825684,454.059967 
	C667.165649,461.106934 663.712158,468.547791 667.878723,476.533569 
	C668.667847,478.046021 667.994629,480.321411 667.978394,482.622437 
	C659.927185,469.552521 664.441589,455.006531 672.209656,445.542725 
	C679.716553,436.397125 695.378662,429.159821 711.464539,435.914368 
	C724.013000,441.183533 732.864014,453.415344 732.989807,467.149994 
	C733.121643,481.553101 726.238037,491.546387 713.360352,497.978088 
z"/>
<path fill="#999796" opacity="1.000000" stroke="none" 
	d="
M679.413330,527.547852 
	C681.538025,526.636230 683.589478,526.162598 685.753601,525.662903 
	C685.753601,536.435608 686.142090,546.370544 685.573364,556.250427 
	C685.325867,560.550049 681.896240,563.626892 677.471008,564.760803 
	C671.221558,566.362122 667.026367,564.879089 662.435730,559.569092 
	C663.128723,558.570557 663.852905,557.527100 664.577087,556.483643 
	C664.608704,556.938049 664.640259,557.392395 664.671875,557.846802 
	C668.068420,558.197937 671.618103,559.277954 674.800415,558.609314 
	C676.532776,558.245300 678.704407,554.983826 678.844116,552.905884 
	C679.400879,544.625427 679.237061,536.296631 679.413330,527.547852 
z"/>
<path fill="#909394" opacity="1.000000" stroke="none" 
	d="
M440.302887,514.566467 
	C454.665955,514.249329 469.458435,514.083923 484.250946,514.077942 
	C564.608154,514.045349 644.965393,514.052185 725.710938,514.184753 
	C724.467041,514.536377 722.834717,514.933716 721.202332,514.934448 
	C628.709106,514.974670 536.215881,514.982544 443.722656,514.984070 
	C442.725861,514.984070 441.729095,514.858704 440.302887,514.566467 
z"/>
<path fill="#175E93" opacity="1.000000" stroke="none" 
	d="
M621.513977,433.924988 
	C621.191650,434.929626 620.622925,436.608704 619.734741,436.799286 
	C610.591675,438.760925 603.361389,443.721100 599.779602,452.151947 
	C596.876526,458.985016 595.319580,466.552887 594.330750,473.950592 
	C593.969910,476.649323 597.086121,479.747345 598.393372,482.759796 
	C599.150513,484.504517 599.464417,486.441589 599.939941,488.702118 
	C585.925049,472.849457 592.823364,444.353333 612.659058,436.592896 
	C615.408325,435.517212 618.295776,434.794586 621.513977,433.924988 
z"/>
<path fill="#105077" opacity="1.000000" stroke="none" 
	d="
M582.352173,446.079468 
	C580.934631,445.891510 579.980347,445.744904 580.309753,445.795502 
	C581.172668,443.927063 582.815491,441.930969 582.724182,440.017609 
	C582.663513,438.745941 580.155090,436.591858 578.690063,436.547302 
	C568.570801,436.239410 558.318909,435.408356 548.339600,436.627716 
	C535.948181,438.141785 536.044739,438.926178 536.038696,451.815430 
	C536.032288,465.469910 536.029175,479.124390 536.012451,492.778870 
	C536.009583,495.140350 535.946411,497.501770 535.583618,499.984100 
	C535.256104,478.488373 535.256104,456.871796 535.256104,435.018860 
	C551.389587,435.018860 567.473999,435.018860 584.728088,435.018860 
	C584.054382,438.929138 583.434875,442.524994 582.352173,446.079468 
z"/>
<path fill="#175E93" opacity="1.000000" stroke="none" 
	d="
M567.474670,472.993774 
	C569.234009,472.601105 571.491089,472.449982 573.654663,471.918518 
	C574.777771,471.642639 576.304993,470.888153 576.609131,469.995392 
	C576.917480,469.090240 576.272827,467.169830 575.466858,466.711304 
	C573.443054,465.559906 571.146484,464.537933 568.862549,464.260529 
	C562.433655,463.479553 555.955994,463.099731 549.250244,462.263306 
	C559.077515,461.964935 569.152100,461.964935 579.644409,461.964935 
	C579.644409,465.520996 579.644409,469.031097 579.644409,473.077637 
	C575.763184,473.077637 571.848389,473.077637 567.474670,472.993774 
z"/>
<path fill="#175E93" opacity="1.000000" stroke="none" 
	d="
M639.038330,448.323761 
	C640.884094,447.083191 643.915955,446.632965 644.725037,445.048065 
	C646.212219,442.134583 643.413635,440.562134 641.102295,439.096191 
	C639.679993,438.194153 638.601196,436.750519 637.189575,435.252319 
	C641.851746,437.053223 646.692627,439.151855 652.217712,441.547150 
	C649.089905,445.683228 646.865662,448.624420 644.497681,451.755768 
	C642.554016,450.593994 640.887939,449.598145 639.038330,448.323761 
z"/>
<path fill="#909394" opacity="1.000000" stroke="none" 
	d="
M268.300964,475.001556 
	C268.673065,500.922394 268.756561,527.177124 268.823242,553.431824 
	C268.828278,555.420776 268.713745,557.410034 268.443604,559.760498 
	C268.100891,555.475403 267.854340,550.828735 267.857239,546.182251 
	C267.871979,522.566650 267.951355,498.951050 268.300964,475.001556 
z"/>
<path fill="#175E93" opacity="1.000000" stroke="none" 
	d="
M584.049072,499.643250 
	C582.729614,499.908569 581.625366,499.764648 579.947083,499.545868 
	C580.808350,498.398682 581.568848,497.758423 581.831238,496.955475 
	C582.309937,495.490051 582.998352,493.779053 582.609436,492.463074 
	C582.379333,491.684570 580.259766,491.087463 578.976196,491.060699 
	C572.377625,490.922943 565.769714,491.148254 559.175415,490.931396 
	C555.937378,490.824921 552.721802,490.035217 549.250732,489.254211 
	C560.713013,488.953705 572.420715,488.953705 584.264282,488.953705 
	C584.264282,492.677429 584.264282,495.955719 584.049072,499.643250 
z"/>
<path fill="#105077" opacity="1.000000" stroke="none" 
	d="
M518.850586,436.602417 
	C516.958252,437.034729 515.110901,436.836090 513.317505,437.063232 
	C509.347992,437.566010 506.685730,438.991028 506.889069,443.965240 
	C507.206360,451.726318 506.797180,459.517090 506.456299,467.627960 
	C506.216766,457.063538 506.216766,446.166382 506.216766,434.342682 
	C510.624268,434.974823 514.772095,435.569733 518.850586,436.602417 
z"/>
<path fill="#909394" opacity="1.000000" stroke="none" 
	d="
M273.261047,562.374512 
	C283.641937,562.100159 294.391571,562.010315 305.605530,562.015015 
	C295.256470,562.259277 284.443115,562.409119 273.261047,562.374512 
z"/>
<path fill="#175E93" opacity="1.000000" stroke="none" 
	d="
M686.320435,499.216095 
	C689.458069,499.611053 692.867798,500.570648 696.318665,500.753601 
	C699.688538,500.932251 703.100403,500.317932 706.958313,500.071167 
	C700.394287,502.792206 693.480652,501.813812 686.320435,499.216095 
z"/>
<path fill="#175E93" opacity="1.000000" stroke="none" 
	d="
M667.994080,483.401611 
	C668.755981,483.179901 669.932007,483.027466 670.257019,483.482666 
	C672.575623,486.729950 674.720581,490.101196 676.901367,493.792358 
	C673.926147,490.685211 670.970215,487.218689 667.994080,483.401611 
z"/>
<path fill="#175E93" opacity="1.000000" stroke="none" 
	d="
M599.989441,489.413696 
	C602.504700,491.243805 605.130249,493.389526 607.820068,495.881348 
	C605.289490,494.061401 602.694580,491.895386 599.989441,489.413696 
z"/>
<path fill="#175E93" opacity="1.000000" stroke="none" 
	d="
M680.007202,496.440491 
	C681.130127,496.637543 682.426636,497.125885 683.822266,497.974121 
	C682.674561,497.799957 681.427673,497.265900 680.007202,496.440491 
z"/>
<path fill="#175E93" opacity="1.000000" stroke="none" 
	d="
M607.966431,496.465271 
	C608.837280,496.545959 609.866394,496.915771 610.937866,497.645996 
	C610.028381,497.589081 609.076477,497.171753 607.966431,496.465271 
z"/>
<path fill="#175E93" opacity="1.000000" stroke="none" 
	d="
M636.769409,434.758575 
	C635.855164,434.837341 634.653809,434.703857 633.226013,434.286316 
	C634.160461,434.183594 635.321350,434.364960 636.769409,434.758575 
z"/>
<path fill="#175E93" opacity="1.000000" stroke="none" 
	d="
M611.255249,498.227417 
	C611.878235,498.180817 612.749756,498.347015 613.802795,498.799133 
	C613.157532,498.870117 612.330627,498.655182 611.255249,498.227417 
z"/>
<path fill="#175E93" opacity="1.000000" stroke="none" 
	d="
M632.800110,433.889374 
	C632.570618,433.948029 632.145996,433.894592 631.517273,433.785339 
	C631.743774,433.745422 632.174377,433.761353 632.800110,433.889374 
z"/>
<path fill="#175E93" opacity="1.000000" stroke="none" 
	d="
M463.030273,479.676086 
	C462.729736,479.472717 462.417908,478.950287 462.144775,478.101990 
	C462.462036,478.303101 462.740509,478.830078 463.030273,479.676086 
z"/>
<path fill="#175E93" opacity="1.000000" stroke="none" 
	d="
M465.597900,480.596802 
	C465.424835,480.808258 464.943451,481.178253 464.237610,481.381775 
	C464.438629,481.061981 464.864136,480.908691 465.597900,480.596802 
z"/>
<path fill="#175E93" opacity="1.000000" stroke="none" 
	d="
M678.192810,495.245850 
	C678.575867,495.218445 679.137085,495.421387 679.809082,495.914429 
	C679.403564,495.961731 678.887268,495.718994 678.192810,495.245850 
z"/>
<path fill="#175E93" opacity="1.000000" stroke="none" 
	d="
M708.335876,500.017151 
	C708.590271,499.691254 709.209534,499.384033 710.198364,499.076416 
	C709.945557,499.395935 709.323181,499.715881 708.335876,500.017151 
z"/>
<path fill="#175E93" opacity="1.000000" stroke="none" 
	d="
M676.944458,494.327209 
	C677.153625,494.228149 677.454041,494.381592 677.866821,494.766602 
	C677.664734,494.858673 677.350220,494.719208 676.944458,494.327209 
z"/>
<path fill="#175E93" opacity="1.000000" stroke="none" 
	d="
M466.637421,478.579590 
	C466.783356,478.797211 466.658997,479.196198 466.290894,479.795197 
	C466.153809,479.583801 466.260468,479.172394 466.637421,478.579590 
z"/>
<path fill="#175E93" opacity="1.000000" stroke="none" 
	d="
M685.250305,498.946106 
	C685.287109,498.796265 685.566833,498.720306 685.923218,498.813721 
	C685.830994,498.995392 685.662170,499.007721 685.250305,498.946106 
z"/>
<path fill="#175E93" opacity="1.000000" stroke="none" 
	d="
M711.254395,498.977234 
	C711.200928,498.736572 711.429688,498.473541 711.910400,498.124878 
	C711.953735,498.344452 711.745178,498.649628 711.254395,498.977234 
z"/>
<path fill="#909394" opacity="1.000000" stroke="none" 
	d="
M269.989563,562.275452 
	C270.061859,562.121704 270.280548,562.078125 270.823578,562.116211 
	C270.810577,562.260437 270.473267,562.322998 269.989563,562.275452 
z"/>
<path fill="#146EAB" opacity="1.000000" stroke="none" 
	d="
M337.009766,513.900391 
	C338.102905,521.805359 334.582306,527.678345 330.270660,533.044128 
	C325.495117,538.987122 320.246552,544.549194 315.227631,550.297729 
	C309.735504,556.588135 302.804962,559.332642 294.503632,559.042725 
	C289.677582,558.874084 284.840851,559.023193 280.008972,559.006653 
	C273.797150,558.985291 273.004059,558.231323 272.991425,552.180054 
	C272.969391,541.602783 273.115021,531.023315 272.950378,520.448547 
	C272.770660,508.904358 272.957306,497.298584 271.776581,485.844147 
	C270.881195,477.157867 275.375214,472.447998 281.025635,467.449249 
	C288.694275,460.665009 295.864044,453.320282 303.375916,446.354126 
	C307.856567,442.198914 312.629333,438.360535 317.187408,434.286438 
	C324.238861,427.983765 331.256439,421.642029 338.218872,415.241211 
	C345.144562,408.874146 347.542358,410.496002 352.245087,415.368988 
	C357.003418,420.299500 363.232025,423.774139 368.432037,428.325806 
	C373.615265,432.862701 378.267487,438.000977 383.251434,442.772308 
	C388.412720,447.713470 393.793488,452.429535 398.852783,457.470337 
	C400.179443,458.792175 400.670044,460.953186 401.544586,462.728790 
	C399.220306,463.796204 396.894745,465.785675 394.571991,465.782349 
	C378.677795,465.759705 362.785065,465.245880 346.889923,465.050140 
	C340.827057,464.975464 337.027130,468.955597 337.019043,474.927734 
	C337.001648,487.757355 337.011230,500.586945 337.009766,513.900391 
z"/>
<path fill="#FFFFFF" opacity="1.000000" stroke="none" 
	d="
M692.000000,489.001068 
	C692.000000,489.001068 691.784241,488.787811 691.410278,488.552124 
	C688.023132,485.873779 684.275452,483.945923 682.135010,480.891693 
	C675.785400,471.831390 676.659241,462.372314 682.187622,453.120331 
	C682.187622,453.120331 682.084351,453.081512 682.342224,453.036713 
	C682.766846,452.671722 682.933594,452.351532 683.100342,452.031372 
	C683.100342,452.031372 683.021545,452.025177 683.321533,451.923218 
	C684.460449,450.912903 685.299438,450.004486 686.138367,449.096069 
	C686.138367,449.096069 686.055969,449.054718 686.343140,449.015656 
	C686.903687,448.678711 687.177063,448.380859 687.450439,448.082977 
	C692.990112,445.926147 698.410889,443.531067 704.609314,446.024811 
	C715.517639,450.413452 721.081238,460.540436 718.870850,472.494690 
	C716.857910,483.381012 708.298035,489.925659 695.510803,489.623810 
	C693.888977,489.273895 692.944458,489.137482 692.000000,489.001068 
z"/>
<path fill="#175E93" opacity="1.000000" stroke="none" 
	d="
M681.821045,453.108337 
	C676.659241,462.372314 675.785400,471.831390 682.135010,480.891693 
	C684.275452,483.945923 688.023132,485.873779 691.267029,488.602051 
	C684.848083,489.113678 678.503174,484.480103 676.163086,476.805389 
	C674.103882,470.052155 673.701782,463.096436 677.723755,456.727631 
	C678.624756,455.300842 680.193298,454.295654 681.821045,453.108337 
z"/>
<path fill="#175E93" opacity="1.000000" stroke="none" 
	d="
M685.751709,449.070557 
	C685.299438,450.004486 684.460449,450.912903 683.340088,451.958130 
	C683.827454,451.078339 684.596313,450.061676 685.751709,449.070557 
z"/>
<path fill="#175E93" opacity="1.000000" stroke="none" 
	d="
M692.236511,489.282104 
	C692.944458,489.137482 693.888977,489.273895 695.102722,489.655457 
	C694.405701,489.788116 693.439331,489.675629 692.236511,489.282104 
z"/>
<path fill="#175E93" opacity="1.000000" stroke="none" 
	d="
M682.850708,452.143250 
	C682.933594,452.351532 682.766846,452.671722 682.340454,453.091858 
	C682.254272,452.879547 682.427673,452.567322 682.850708,452.143250 
z"/>
<path fill="#175E93" opacity="1.000000" stroke="none" 
	d="
M687.146362,448.158234 
	C687.177063,448.380859 686.903687,448.678711 686.333313,449.060699 
	C686.304993,448.841034 686.573608,448.537262 687.146362,448.158234 
z"/>
<path fill="#FFFFFF" opacity="1.000000" stroke="none" 
	d="
M499.861206,532.076660 
	C502.279633,532.331116 504.240997,532.583618 506.202576,532.834595 
	C509.819061,533.297424 511.439484,535.317871 511.018738,538.963318 
	C510.613159,542.477539 509.051422,544.779480 505.200867,545.158630 
	C492.328827,546.426208 492.036865,546.160156 493.332214,532.073975 
	C495.290863,532.073975 497.347534,532.073975 499.861206,532.076660 
z"/>
<path fill="#146EAB" opacity="1.000000" stroke="none" 
	d="
M341.009521,587.042542 
	C336.598694,581.507385 332.604523,576.085876 328.318390,570.905884 
	C325.474396,567.468811 327.867920,564.827026 329.464447,562.398499 
	C331.535217,559.248535 334.197601,556.451050 336.822083,553.709290 
	C342.360565,547.923096 348.750214,548.332031 354.076294,554.465637 
	C356.357178,557.092407 358.968506,559.431519 361.417572,561.913208 
	C364.249268,564.782593 364.843323,567.829285 362.245605,571.221191 
	C358.047791,576.702393 354.088470,582.379211 349.666443,587.670898 
	C347.077148,590.769409 343.933014,590.651794 341.009521,587.042542 
z"/>
<path fill="#FFFFFF" opacity="1.000000" stroke="none" 
	d="
M594.441895,557.922668 
	C592.789368,557.965698 591.136475,557.998352 589.484375,558.053467 
	C580.604797,558.349670 580.522522,558.353821 580.275879,549.620911 
	C580.117798,544.022034 580.246277,538.415161 580.246277,531.759155 
	C585.210510,532.148804 589.208496,532.462585 593.888184,533.013672 
	C595.315186,533.579529 596.060425,533.908203 596.805664,534.236877 
	C596.805664,534.236877 596.871277,534.234070 596.992798,534.517090 
	C603.859680,542.117432 603.495117,548.904724 595.924438,556.953857 
	C595.924438,556.953857 595.982483,556.994873 595.668091,557.029419 
	C595.049744,557.350220 594.745850,557.636475 594.441895,557.922668 
z"/>
<path fill="#939090" opacity="1.000000" stroke="none" 
	d="
M596.302124,556.966187 
	C603.495117,548.904724 603.859680,542.117432 596.974976,534.489502 
	C598.056152,534.462463 599.517639,534.411011 600.456543,535.086365 
	C604.931763,538.305237 604.418884,543.165894 603.804443,547.676514 
	C603.229370,551.897400 601.957825,556.114624 596.302124,556.966187 
z"/>
<path fill="#939090" opacity="1.000000" stroke="none" 
	d="
M596.839844,533.892944 
	C596.060425,533.908203 595.315186,533.579529 594.293579,533.098083 
	C594.969482,533.146545 595.921753,533.347778 596.839844,533.892944 
z"/>
<path fill="#939090" opacity="1.000000" stroke="none" 
	d="
M594.760620,557.861328 
	C594.745850,557.636475 595.049744,557.350220 595.666931,556.993896 
	C595.679932,557.215820 595.379639,557.507874 594.760620,557.861328 
z"/>
<path fill="#FFFFFF" opacity="1.000000" stroke="none" 
	d="
M707.718750,547.637695 
	C709.558716,543.222595 711.266357,539.167114 713.141907,534.712891 
	C713.949585,535.595154 714.522400,535.977112 714.748962,536.507141 
	C716.423950,540.425903 718.029968,544.374207 720.239502,549.721069 
	C715.394775,549.061035 711.490601,548.529175 707.718750,547.637695 
z"/>
<path fill="#FFFFFF" opacity="1.000000" stroke="none" 
	d="
M543.510132,535.891479 
	C544.439636,535.670044 545.398926,535.497375 545.864746,535.898193 
	C546.428894,536.383545 546.588196,537.348755 546.901184,538.115112 
	C548.269775,541.466125 549.630554,544.820374 551.289124,548.898499 
	C546.902161,549.124817 543.080811,549.321960 538.427063,549.562012 
	C540.199280,544.721680 541.760315,540.458069 543.510132,535.891479 
z"/>
</svg>