<?xml version="1.0" encoding="UTF-8"?>
<svg version="1.1" viewBox="0 0 2000 2000" width="2000" height="2000" xmlns="http://www.w3.org/2000/svg">
<path transform="translate(689,803)" d="m0 0 6 4 9 9 8 7 10 10 8 7 13 12 12 11 16 15 8 8 8 7 14 13 8 7 10 9 11 10v3h-148v80l-1 38-11 14-10 11-27 33-9 10-2 1-9 1h-77l-2-4v-172l4-5 11-9 8-8 8-7 11-10 8-7 32-30h2v-2l8-7 7-7 8-7 16-15 4-2 1-3 8-7 14-14h2l1-3z" fill="#126BA3"/>
<path transform="translate(700,952)" d="m0 0h145v170h-87l-5-4-11-14-11-13-9-11-12-14-7-8-3-4-1-9v-92z" fill="#999DA0"/>
<path transform="translate(1386,865)" d="m0 0h18l13 3 14 6 9 7 9 9 9 14 5 14 1 6v18l-3 13-8 16-9 11-10 8-14 7-15 4-15 1-12-2-14-5-12-7-10-9-9-14-6-16-2-11 1-16 7-19 7-12 7-8 11-8 12-6zm2 23-13 5-8 6-6 7-5 10-2 8v16l3 12 7 12 8 7 8 4 13 3 12-1 12-5 8-6 7-10 4-13v-17l-2-10-6-12-8-8-12-6-7-2z" fill="#136BA3"/>
<path transform="translate(1243,865)" d="m0 0h20l16 4 14 7 7 6-1 5-9 11-4 4-11-7-12-5-5-1h-12l-15 6-9 7-7 11-3 9-1 6v11l4 15 6 10 8 7 16 6h17l15-5 4-2 1-5v-18h-30v-22h54l1 1v53l-6 7-14 8-18 6-12 2h-13l-14-3-12-5-11-7-11-11-8-14-4-10-1-5v-23l3-12 5-11 7-11 6-7 14-10 15-6z" fill="#136BA3"/>
<path transform="translate(1109,867)" d="m0 0h23l34 1 1 1v20l-2 2h-71v31h63l1 1v21h-64l1 31 72 1v23h-99v-131z" fill="#136BA3"/>
<path transform="translate(861,867)" d="m0 0 27 1 5 10 12 31 21 51 2 1 10-26 10-25 6-17 8-21 3-4 26-1 1 3-12 29-14 34-15 37-12 29h-26l-10-24-12-31-15-36-11-27-4-10z" fill="#136BA3"/>
<path transform="translate(689,1071)" d="m0 0 7 6 9 11 10 12 9 11 9 10 7 9-1 4-11 13-10 13-14 18-11 14-4 2-7-7-11-14-14-18-9-12-8-11 2-4 7-9 9-10 11-14 8-9 9-11z" fill="#136BA3"/>
<path transform="translate(879,1019)" d="m0 0h256l329 1v7h-589l-1-1v-5z" fill="#186DA3"/>
<path transform="translate(1010,868)" d="m0 0h25l1 1v130h-25l-1-3z" fill="#166CA3"/>
<path transform="translate(970,1050)" d="m0 0h39l12 2 6 4 4 5 3 7v13l-5 10-7 6-5 2 7 11 8 11 3 3v3l-3 1-9-1-5-3-13-18-3-4-18-1-1 18-1 7-2 1h-10l-1-30v-46zm13 12v27l4 1 23-1 8-5 3-6-1-9-5-5-4-2z" fill="#999DA0"/>
<path transform="translate(1236,1050)" d="m0 0 13 1 4 4 13 17 13 16 10 13 3 2-1-27v-24l1-2h9l3 1v74l-2 2-9-1-9-10-13-17-11-13-8-11-1-3h-2v34l-1 19-7 2-5-1-1-16v-59z" fill="#999DA0"/>
<path transform="translate(1146,1050)" d="m0 0h31l14 2 8 4 10 9 5 10 1 4v16l-3 10-6 8-8 7-10 4-14 2-15 1h-12l-2-6v-70zm17 11-4 1v53h23l8-3 6-5 4-7 1-4v-16l-5-10-8-6-11-3z" fill="#999DA0"/>
<path transform="translate(912,1048)" d="m0 0h10l13 3 9 5 1 3-5 8-3 1-13-6-4-1h-8l-10 4-7 6-4 8-1 4v11l4 11 5 6 9 4h18l7-3 2-3v-13l-17-1v-8l2-3 14-1h14l1 1v27l-2 7-12 7-7 2-16 1-12-2-9-5-5-4-6-10-3-8-1-6v-9l3-12 5-9 7-7 12-6z" fill="#999DA0"/>
<path transform="translate(1421,1049)" d="m0 0h9l3 3 11 24 11 26 10 23v2h-13l-3-5-4-10-2-2-14-1h-23l-6 12-2 5-2 1h-10l1-6 12-28 13-30 7-13zm3 17-12 29v3l26-1-6-18-6-13z" fill="#999DA0"/>
<path transform="translate(1088,1049)" d="m0 0 6 1 3 4 16 37 11 25 4 8v3h-10l-4-2-8-16h-37l-8 14-3 3-10 1 6-16 13-29 10-24 4-7zm-1 17-3 5-9 22-1 5 26-1-2-9-8-20-1-2z" fill="#999DA0"/>
<path transform="translate(1357,1050)" d="m0 0h12l1 1v57l-3 9-8 8-10 3h-10l-9-2-10-7 1-4 3-1 2-4 5 2 6 3 8 1 8-3 2-2 1-5z" fill="#999DA0"/>
</svg>
